<?xml version="1.0" standalone="no"?><!DOCTYPE svg PUBLIC "-//W3C//DTD SVG 1.1//EN" "http://www.w3.org/Graphics/SVG/1.1/DTD/svg11.dtd"><svg width="100%" height="100%" viewBox="0 0 5334 1667" version="1.1" xmlns="http://www.w3.org/2000/svg" xmlns:xlink="http://www.w3.org/1999/xlink" xml:space="preserve" style="fill-rule:evenodd;clip-rule:evenodd;stroke-linejoin:round;stroke-miterlimit:1.41421;"><g id="Capa1"><g><g><path d="M2236.43,1048.84c0,-34.272 -14.093,-64.261 -42.277,-89.965c-28.185,-25.705 -79.03,-46.674 -152.536,-62.909c-87.486,-18.94 -152.085,-43.968 -193.799,-75.084c-41.713,-31.116 -62.57,-75.084 -62.57,-131.905c0,-55.918 23.563,-103.156 70.688,-141.713c47.125,-38.556 109.469,-57.835 187.034,-57.835c82.525,0 147.913,20.406 196.165,61.218c48.253,40.811 71.252,91.882 68.997,153.212l-1.353,4.059l-75.084,0c0,-40.136 -17.024,-75.085 -51.071,-104.848c-34.047,-29.763 -79.932,-44.644 -137.654,-44.644c-59.076,0 -103.382,12.739 -132.92,38.218c-29.537,25.479 -44.306,55.355 -44.306,89.628c0,33.821 12.739,61.781 38.218,83.877c25.479,22.097 76.325,41.488 152.536,58.174c87.035,19.391 152.198,45.885 195.49,79.481c43.292,33.596 64.937,79.255 64.937,136.978c0,60.879 -24.689,110.146 -74.069,147.801c-49.38,37.654 -114.656,56.482 -195.828,56.482c-88.838,0 -158.624,-21.195 -209.356,-63.585c-50.733,-42.39 -74.746,-92.897 -72.04,-151.521l1.353,-4.059l74.407,0c3.157,52.762 24.69,91.093 64.6,114.994c39.909,23.901 86.922,35.851 141.036,35.851c58.625,0 104.847,-12.852 138.669,-38.557c33.822,-25.704 50.733,-56.82 50.733,-93.348Z" style="fill:#7d8391;fill-rule:nonzero;"/><path d="M2497.29,1234.86l-80.496,0l0,-731.902l80.496,0l0,731.902ZM2497.29,293.263l-80.496,0l0,-113.641l80.496,0l0,113.641Z" style="fill:#7d8391;fill-rule:nonzero;"/><path d="M2692.54,502.957l7.44,121.082c23.45,-42.841 54.679,-75.986 93.687,-99.436c39.007,-23.45 85.568,-35.175 139.683,-35.175c55.919,0 102.705,13.529 140.36,40.586c37.655,27.058 64.6,68.32 80.834,123.788c22.097,-51.409 53.551,-91.657 94.363,-120.744c40.811,-29.086 90.529,-43.63 149.153,-43.63c78.016,0 138.218,25.93 180.608,77.79c42.39,51.86 63.585,132.13 63.585,240.811l0,426.83l-81.172,0l0,-428.183c0,-90.191 -15.896,-153.889 -47.689,-191.093c-31.792,-37.204 -76.098,-55.805 -132.919,-55.805c-62.683,0 -111.161,19.616 -145.433,58.849c-34.273,39.233 -55.468,89.515 -63.585,150.845c0,3.157 0.113,7.666 0.338,13.529c0.226,5.862 0.338,10.146 0.338,12.852l0,439.006l-81.848,0l0,-428.183c0,-88.387 -16.122,-151.634 -48.365,-189.74c-32.244,-38.106 -76.55,-57.158 -132.919,-57.158c-57.272,0 -102.706,14.543 -136.302,43.63c-33.596,29.086 -57.159,68.207 -70.687,117.361l0,514.09l-81.849,0l0,-731.902l72.379,0Z" style="fill:#7d8391;fill-rule:nonzero;"/><path d="M4344.15,889.201c0,109.582 -24.803,196.955 -74.408,262.118c-49.605,65.163 -117.925,97.745 -204.959,97.745c-51.409,0 -96.392,-9.696 -134.949,-29.087c-38.557,-19.391 -70.011,-47.125 -94.362,-83.201l0,379.479l-81.172,0l0,-1013.3l68.319,0l10.147,113.641c24.352,-40.586 55.806,-71.928 94.362,-94.024c38.557,-22.097 83.991,-33.146 136.302,-33.146c87.936,0 156.707,35.062 206.312,105.186c49.605,70.124 74.408,163.584 74.408,280.382l0,14.205ZM4262.98,874.996c0,-92.897 -18.489,-168.658 -55.468,-227.282c-36.978,-58.624 -91.093,-87.936 -162.344,-87.936c-54.566,0 -98.872,12.965 -132.919,38.894c-34.047,25.93 -59.639,59.639 -76.775,101.127l0,351.746c18.489,40.135 45.208,71.702 80.157,94.701c34.949,22.999 78.579,34.498 130.89,34.498c70.8,0 124.577,-26.606 161.33,-79.819c36.752,-53.213 55.129,-123.788 55.129,-211.724l0,-14.205Z" style="fill:#7d8391;fill-rule:nonzero;"/><rect x="4439.28" y="179.622" width="80.496" height="1055.24" style="fill:#7d8391;fill-rule:nonzero;"/><path d="M4921.34,1249.06c-91.544,0 -167.643,-33.822 -228.297,-101.465c-60.653,-67.644 -90.98,-153.325 -90.98,-257.045l0,-37.204c0,-104.622 30.101,-191.431 90.304,-260.427c60.202,-68.996 133.144,-103.495 218.826,-103.495c89.74,0 160.315,28.411 211.724,85.231c51.409,56.821 77.113,132.581 77.113,227.282l0,68.996l-516.795,0l0,19.617c0,82.525 21.871,151.521 65.614,206.989c43.743,55.467 101.24,83.201 172.491,83.201c50.507,0 93.573,-6.99 129.199,-20.97c35.625,-13.979 66.065,-34.047 91.318,-60.202l34.498,55.467c-27.508,28.862 -62.344,51.748 -104.509,68.658c-42.164,16.911 -92.333,25.367 -150.506,25.367ZM4911.19,558.425c-59.977,0 -110.259,22.886 -150.845,68.658c-40.586,45.772 -64.261,103.156 -71.025,172.152l1.353,3.382l428.859,0l0,-20.293c0,-63.584 -18.715,-116.797 -56.144,-159.638c-37.43,-42.841 -88.162,-64.261 -152.198,-64.261Z" style="fill:#7d8391;fill-rule:nonzero;"/></g><circle cx="783.511" cy="890.143" r="691.803" style="fill:#df3716;"/><circle cx="754.073" cy="566.32" r="73.596" style="fill:#fff;"/><circle cx="1283.96" cy="419.128" r="103.034" style="fill:#fff;"/><circle cx="1438.52" cy="632.557" r="110.394" style="fill:#fff;"/><circle cx="1033.74" cy="257.217" r="88.315" style="fill:#fff;"/><circle cx="1269.25" cy="610.478" r="117.754" style="fill:#fff;"/><circle cx="842.388" cy="478.005" r="103.034" style="fill:#fff;"/><circle cx="1151.49" cy="728.231" r="117.754" style="fill:#fff;"/><circle cx="886.545" cy="257.217" r="147.192" style="fill:#fff;"/><circle cx="1055.82" cy="485.365" r="169.271" style="fill:#fff;"/><circle cx="1328.12" cy="845.985" r="176.63" style="fill:#fff;"/><circle cx="910.789" cy="811.352" r="259.751" style="fill:#fff;"/><circle cx="1283.96" cy="419.128" r="73.596" style="fill:#1047ab;"/><circle cx="886.545" cy="257.217" r="66.236" style="fill:#df3716;"/><circle cx="1033.74" cy="257.217" r="58.877" style="fill:#1047ab;"/><circle cx="1210.37" cy="522.163" r="29.438" style="fill:#df3716;"/><circle cx="1476.76" cy="404.986" r="29.438" style="fill:#df3716;"/><circle cx="1298.68" cy="286.655" r="29.438" style="fill:#df3716;"/><circle cx="931.857" cy="389.113" r="14.719" style="fill:#df3716;"/><circle cx="931.857" cy="389.113" r="14.719" style="fill:#df3716;"/><circle cx="1033.74" cy="639.916" r="29.438" style="fill:#1047ab;"/><circle cx="1474.16" cy="202.958" r="29.438" style="fill:#1047ab;"/><circle cx="754.073" cy="566.32" r="29.438" style="fill:#df3716;"/><circle cx="1055.82" cy="485.365" r="103.034" style="fill:#1047ab;"/><circle cx="1328.12" cy="845.985" r="103.034" style="fill:#1047ab;"/><circle cx="910.789" cy="811.352" r="173.167" style="fill:#1047ab;"/><circle cx="1415.57" cy="313.496" r="43.292" style="fill:#df3716;"/><circle cx="1166.21" cy="330.813" r="73.596" style="fill:#fff;"/><circle cx="1342.84" cy="536.882" r="44.158" style="fill:#fff;"/><circle cx="842.388" cy="478.005" r="58.877" style="fill:#1047ab;"/><circle cx="1166.21" cy="330.813" r="44.158" style="fill:#df3716;"/><circle cx="1209.79" cy="202.958" r="29.438" style="fill:#1047ab;"/><circle cx="1411.82" cy="664.737" r="29.438" style="fill:#df3716;"/><circle cx="1148.55" cy="725.288" r="58.877" style="fill:#df3716;"/><circle cx="1269.25" cy="610.478" r="58.877" style="fill:#1047ab;"/><circle cx="1401.72" cy="507.443" r="44.158" style="fill:#1047ab;"/><circle cx="908.624" cy="573.68" r="22.079" style="fill:#df3716;"/></g></g></svg>